# xmcd
#
# Track frame offsets:
#	150
#	16053
#	33868
#	43953
#	57462
#	70908
#	80301
#	91097
#	105135
#	117913
#	130807
#	142859
#	155022
#	170024
#	184031
#	199188
#	215031
#	225531
#	238817
#	254470
#	266245
#	280287
#	297109
#	309403
#	323124
#	338005
#
# Disc length: 4706 seconds
#
# Revision: 0
# Processed by: cddbd v1.5.1PL0 Copyright (c) Steve Scherf et al.
# Submitted via: dBpowerAMP V4.0
#
DISCID=7512601a
DTITLE=George Strait - 50 Number Ones
DYEAR=2004
DGENRE=Country
TTITLE0=I Hate Everything
TTITLE1=Fool Hearted Memory
TTITLE2=A Fire I Can't Put Out
TTITLE3=You Look So Good in Love
TTITLE4=Right or Wrong
TTITLE5=Let's Fall to Pieces Together
TTITLE6=Does Fort Worth Ever Cross Your Mind
TTITLE7=The Chair
TTITLE8=Nobody in His Right Mind Would've Left Her
TTITLE9=It Ain't Cool to Be Crazy About You
TTITLE10=Ocean Front Property
TTITLE11=All My Ex's Live in Texas
TTITLE12=Am I Blue
TTITLE13=Famous Last Word's of a Fool
TTITLE14=Baby Blue
TTITLE15=If You Ain't Lovin' (You Ain't Livin')
TTITLE16=Baby's Gotten Good at Goodbye
TTITLE17=What's Going on in Your World
TTITLE18=Ace in the Hole
TTITLE19=Love Without End, Amen
TTITLE20=I've Come to Expect it from You
TTITLE21=If I Know Me
TTITLE22=You Know Me Better Then That
TTITLE23=The Chill of an Early Fall
TTITLE24=So Much Like My Dad
TTITLE25=I Cross My Heart
EXTD=
EXTT0=
EXTT1=
EXTT2=
EXTT3=
EXTT4=
EXTT5=
EXTT6=
EXTT7=
EXTT8=
EXTT9=
EXTT10=
EXTT11=
EXTT12=
EXTT13=
EXTT14=
EXTT15=
EXTT16=
EXTT17=
EXTT18=
EXTT19=
EXTT20=
EXTT21=
EXTT22=
EXTT23=
EXTT24=
EXTT25=
PLAYORDER=
